<mxfile>
    <diagram id="BzeWuSWtje4ORMCNxh40" name="第 1 页">
        <mxGraphModel dx="1728" dy="1941" grid="1" gridSize="10" guides="1" tooltips="1" connect="1" arrows="1" fold="1" page="1" pageScale="1" pageWidth="827" pageHeight="1169" math="0" shadow="0">
            <root>
                <mxCell id="0"/>
                <mxCell id="1" parent="0"/>
                <mxCell id="qBQlF7NBc0J-nLH2HXVz-28" value="" style="rounded=1;whiteSpace=wrap;html=1;strokeColor=#3399FF;strokeWidth=3;fillColor=none;" parent="1" vertex="1">
                    <mxGeometry x="-580" y="-250" width="540" height="535" as="geometry"/>
                </mxCell>
                <mxCell id="20" style="edgeStyle=orthogonalEdgeStyle;rounded=0;orthogonalLoop=1;jettySize=auto;html=1;exitX=0.07;exitY=0.4;exitDx=0;exitDy=0;exitPerimeter=0;entryX=1;entryY=0.5;entryDx=0;entryDy=0;strokeColor=#FF3399;fontColor=#FF8000;curved=1;strokeWidth=2;" parent="1" source="qBQlF7NBc0J-nLH2HXVz-45" target="qBQlF7NBc0J-nLH2HXVz-29" edge="1">
                    <mxGeometry relative="1" as="geometry">
                        <Array as="points">
                            <mxPoint x="-227" y="20"/>
                            <mxPoint x="-310" y="20"/>
                        </Array>
                    </mxGeometry>
                </mxCell>
                <mxCell id="21" value="6. mint PDOT" style="edgeLabel;html=1;align=center;verticalAlign=middle;resizable=0;points=[];fontColor=#FF3399;fontStyle=1" parent="20" vertex="1" connectable="0">
                    <mxGeometry x="-0.437" y="2" relative="1" as="geometry">
                        <mxPoint x="-18.55" y="-12" as="offset"/>
                    </mxGeometry>
                </mxCell>
                <mxCell id="qBQlF7NBc0J-nLH2HXVz-45" value="&lt;b&gt;&lt;font color=&quot;#33ffff&quot;&gt;Contract&lt;/font&gt;&lt;/b&gt;" style="ellipse;shape=cloud;whiteSpace=wrap;html=1;rounded=1;strokeColor=#33FFFF;strokeWidth=3;" parent="1" vertex="1">
                    <mxGeometry x="-240" y="-25" width="180" height="130" as="geometry"/>
                </mxCell>
                <mxCell id="fAShZ8duKGNs7Qphul_N-12" value="" style="rounded=1;whiteSpace=wrap;html=1;strokeColor=#FF3399;strokeWidth=3;fillColor=none;" parent="1" vertex="1">
                    <mxGeometry x="840" y="-250" width="540" height="530" as="geometry"/>
                </mxCell>
                <mxCell id="qBQlF7NBc0J-nLH2HXVz-72" value="" style="shape=actor;whiteSpace=wrap;html=1;rounded=1;labelBackgroundColor=none;strokeColor=#FF3399;strokeWidth=3;fontColor=#FF3399;fillColor=#FFFFFF;" parent="1" vertex="1">
                    <mxGeometry x="910" y="35" width="40" height="60" as="geometry"/>
                </mxCell>
                <mxCell id="qBQlF7NBc0J-nLH2HXVz-55" value="" style="rounded=1;whiteSpace=wrap;html=1;strokeWidth=3;strokeColor=#00CC00;fillColor=none;" parent="1" vertex="1">
                    <mxGeometry x="80" y="-140" width="590" height="360" as="geometry"/>
                </mxCell>
                <mxCell id="qBQlF7NBc0J-nLH2HXVz-9" style="edgeStyle=orthogonalEdgeStyle;curved=1;rounded=0;orthogonalLoop=1;jettySize=auto;html=1;exitX=0;exitY=1;exitDx=0;exitDy=0;entryX=1;entryY=0.5;entryDx=0;entryDy=0;entryPerimeter=0;fillColor=#f8cecc;strokeWidth=2;strokeColor=#FF3399;" parent="1" source="fAShZ8duKGNs7Qphul_N-1" target="fAShZ8duKGNs7Qphul_N-3" edge="1">
                    <mxGeometry relative="1" as="geometry">
                        <Array as="points">
                            <mxPoint x="459" y="-110"/>
                            <mxPoint x="459" y="35"/>
                        </Array>
                    </mxGeometry>
                </mxCell>
                <mxCell id="qBQlF7NBc0J-nLH2HXVz-64" value="3. Route Message" style="edgeLabel;html=1;align=center;verticalAlign=middle;resizable=0;points=[];fontColor=#FF3399;labelBackgroundColor=none;fontStyle=1" parent="qBQlF7NBc0J-nLH2HXVz-9" vertex="1" connectable="0">
                    <mxGeometry x="0.1247" y="-2" relative="1" as="geometry">
                        <mxPoint x="-17" y="-27.33" as="offset"/>
                    </mxGeometry>
                </mxCell>
                <mxCell id="fAShZ8duKGNs7Qphul_N-1" value="&lt;b&gt;&lt;font color=&quot;#ff3399&quot;&gt;kusama&lt;/font&gt;&lt;/b&gt;" style="shape=process;whiteSpace=wrap;html=1;backgroundOutline=1;size=0.2413793103448276;rotation=90;fillColor=none;" parent="1" vertex="1">
                    <mxGeometry x="420" y="-25" width="290" height="120" as="geometry"/>
                </mxCell>
                <mxCell id="qBQlF7NBc0J-nLH2HXVz-50" style="edgeStyle=orthogonalEdgeStyle;curved=1;rounded=0;orthogonalLoop=1;jettySize=auto;html=1;exitX=0;exitY=0;exitDx=0;exitDy=0;entryX=0;entryY=0.5;entryDx=0;entryDy=0;entryPerimeter=0;fillColor=#fa6800;strokeColor=#C73500;strokeWidth=2;" parent="1" source="fAShZ8duKGNs7Qphul_N-2" target="fAShZ8duKGNs7Qphul_N-3" edge="1">
                    <mxGeometry relative="1" as="geometry">
                        <Array as="points">
                            <mxPoint x="308" y="-110"/>
                            <mxPoint x="308" y="35"/>
                        </Array>
                    </mxGeometry>
                </mxCell>
                <mxCell id="24" value="4. Route Message" style="edgeLabel;html=1;align=center;verticalAlign=middle;resizable=0;points=[];fontColor=#FF8000;fontStyle=1" parent="qBQlF7NBc0J-nLH2HXVz-50" vertex="1" connectable="0">
                    <mxGeometry x="-0.0916" y="-1" relative="1" as="geometry">
                        <mxPoint as="offset"/>
                    </mxGeometry>
                </mxCell>
                <mxCell id="fAShZ8duKGNs7Qphul_N-2" value="&lt;b&gt;&lt;font color=&quot;#ff3399&quot;&gt;alaya&lt;/font&gt;&lt;/b&gt;" style="shape=process;whiteSpace=wrap;html=1;backgroundOutline=1;size=0.2413793103448276;rotation=90;fillColor=none;" parent="1" vertex="1">
                    <mxGeometry x="50" y="-25" width="290" height="120" as="geometry"/>
                </mxCell>
                <mxCell id="qBQlF7NBc0J-nLH2HXVz-10" style="edgeStyle=orthogonalEdgeStyle;curved=1;rounded=0;orthogonalLoop=1;jettySize=auto;html=1;exitX=0;exitY=0.5;exitDx=0;exitDy=0;exitPerimeter=0;entryX=1;entryY=0;entryDx=0;entryDy=0;fillColor=#f8cecc;strokeWidth=2;strokeColor=#FF3399;" parent="1" source="fAShZ8duKGNs7Qphul_N-3" target="fAShZ8duKGNs7Qphul_N-2" edge="1">
                    <mxGeometry relative="1" as="geometry">
                        <Array as="points">
                            <mxPoint x="304" y="35"/>
                            <mxPoint x="304" y="180"/>
                        </Array>
                    </mxGeometry>
                </mxCell>
                <mxCell id="qBQlF7NBc0J-nLH2HXVz-51" style="edgeStyle=orthogonalEdgeStyle;curved=1;rounded=0;orthogonalLoop=1;jettySize=auto;html=1;exitX=1;exitY=0.5;exitDx=0;exitDy=0;exitPerimeter=0;entryX=1;entryY=1;entryDx=0;entryDy=0;fillColor=#fa6800;strokeColor=#C73500;strokeWidth=2;" parent="1" source="fAShZ8duKGNs7Qphul_N-3" target="fAShZ8duKGNs7Qphul_N-1" edge="1">
                    <mxGeometry relative="1" as="geometry">
                        <Array as="points">
                            <mxPoint x="459" y="35"/>
                            <mxPoint x="459" y="180"/>
                        </Array>
                    </mxGeometry>
                </mxCell>
                <mxCell id="fAShZ8duKGNs7Qphul_N-3" value="&lt;b&gt;&lt;font color=&quot;#ff8000&quot;&gt;router&lt;/font&gt;&lt;/b&gt;" style="shape=cylinder3;whiteSpace=wrap;html=1;boundedLbl=1;backgroundOutline=1;size=15;fillColor=none;" parent="1" vertex="1">
                    <mxGeometry x="353.5" y="-5" width="60" height="80" as="geometry"/>
                </mxCell>
                <mxCell id="fAShZ8duKGNs7Qphul_N-4" value="&lt;font color=&quot;#ff8000&quot;&gt;&lt;b&gt;listener&lt;/b&gt;&lt;/font&gt;" style="text;html=1;align=center;verticalAlign=middle;whiteSpace=wrap;rounded=0;fontColor=#ffffff;" parent="1" vertex="1">
                    <mxGeometry x="175" y="-90" width="40" height="20" as="geometry"/>
                </mxCell>
                <mxCell id="fAShZ8duKGNs7Qphul_N-7" value="&lt;font color=&quot;#ff8000&quot;&gt;&lt;b&gt;listener&lt;/b&gt;&lt;/font&gt;" style="text;html=1;align=center;verticalAlign=middle;whiteSpace=wrap;rounded=0;fontColor=#ffffff;" parent="1" vertex="1">
                    <mxGeometry x="545" y="-90" width="40" height="20" as="geometry"/>
                </mxCell>
                <mxCell id="fAShZ8duKGNs7Qphul_N-8" value="&lt;font color=&quot;#ff8000&quot;&gt;&lt;b&gt;writer&lt;/b&gt;&lt;/font&gt;" style="text;html=1;align=center;verticalAlign=middle;whiteSpace=wrap;rounded=0;fontColor=#ffffff;" parent="1" vertex="1">
                    <mxGeometry x="175" y="140" width="40" height="20" as="geometry"/>
                </mxCell>
                <mxCell id="fAShZ8duKGNs7Qphul_N-10" value="&lt;font color=&quot;#ff8000&quot;&gt;&lt;b&gt;writer&lt;/b&gt;&lt;/font&gt;" style="text;html=1;align=center;verticalAlign=middle;whiteSpace=wrap;rounded=0;fontColor=#ffffff;" parent="1" vertex="1">
                    <mxGeometry x="545" y="140" width="40" height="20" as="geometry"/>
                </mxCell>
                <mxCell id="fAShZ8duKGNs7Qphul_N-14" value="" style="rhombus;whiteSpace=wrap;html=1;strokeWidth=2;fillWeight=-1;hachureGap=8;fillStyle=cross-hatch;fillColor=#f8cecc;sketch=1;strokeColor=#b85450;" parent="1" vertex="1">
                    <mxGeometry x="990" y="-10" width="120" height="60" as="geometry"/>
                </mxCell>
                <mxCell id="qBQlF7NBc0J-nLH2HXVz-4" style="edgeStyle=orthogonalEdgeStyle;curved=1;rounded=0;orthogonalLoop=1;jettySize=auto;html=1;exitX=0.5;exitY=1;exitDx=0;exitDy=0;entryX=0;entryY=0;entryDx=0;entryDy=0;fillColor=#f8cecc;strokeColor=#b85450;" parent="1" source="qBQlF7NBc0J-nLH2HXVz-74" target="fAShZ8duKGNs7Qphul_N-14" edge="1">
                    <mxGeometry relative="1" as="geometry">
                        <mxPoint x="1042.5" y="-114" as="sourcePoint"/>
                        <Array as="points">
                            <mxPoint x="1050" y="-70"/>
                            <mxPoint x="1020" y="-70"/>
                        </Array>
                    </mxGeometry>
                </mxCell>
                <mxCell id="qBQlF7NBc0J-nLH2HXVz-2" style="edgeStyle=orthogonalEdgeStyle;curved=1;rounded=0;orthogonalLoop=1;jettySize=auto;html=1;exitX=0.75;exitY=0.1;exitDx=0;exitDy=0;exitPerimeter=0;entryX=0.158;entryY=0.695;entryDx=0;entryDy=0;entryPerimeter=0;fillColor=#f8cecc;strokeColor=#FF3399;strokeWidth=2;" parent="1" target="fAShZ8duKGNs7Qphul_N-14" edge="1">
                    <mxGeometry relative="1" as="geometry">
                        <mxPoint x="942.5" y="61" as="sourcePoint"/>
                        <Array as="points">
                            <mxPoint x="1009" y="61"/>
                        </Array>
                    </mxGeometry>
                </mxCell>
                <mxCell id="qBQlF7NBc0J-nLH2HXVz-5" style="edgeStyle=orthogonalEdgeStyle;curved=1;rounded=0;orthogonalLoop=1;jettySize=auto;html=1;exitX=0.25;exitY=0.1;exitDx=0;exitDy=0;exitPerimeter=0;entryX=1;entryY=1;entryDx=0;entryDy=0;fillColor=#f8cecc;strokeColor=#b85450;" parent="1" target="fAShZ8duKGNs7Qphul_N-14" edge="1">
                    <mxGeometry relative="1" as="geometry">
                        <mxPoint x="1157.5" y="61" as="sourcePoint"/>
                        <Array as="points">
                            <mxPoint x="1080" y="61"/>
                        </Array>
                    </mxGeometry>
                </mxCell>
                <mxCell id="fAShZ8duKGNs7Qphul_N-21" value="" style="endArrow=none;dashed=1;html=1;dashPattern=1 3;strokeWidth=2;exitX=0.5;exitY=0;exitDx=0;exitDy=0;entryX=0;entryY=0.75;entryDx=0;entryDy=0;" parent="1" source="qBQlF7NBc0J-nLH2HXVz-72" target="qBQlF7NBc0J-nLH2HXVz-74" edge="1">
                    <mxGeometry width="50" height="50" relative="1" as="geometry">
                        <mxPoint x="935" y="55" as="sourcePoint"/>
                        <mxPoint x="1035" y="-100" as="targetPoint"/>
                    </mxGeometry>
                </mxCell>
                <mxCell id="fAShZ8duKGNs7Qphul_N-22" value="" style="endArrow=none;dashed=1;html=1;dashPattern=1 3;strokeWidth=2;exitX=1;exitY=0.75;exitDx=0;exitDy=0;entryX=0;entryY=0.75;entryDx=0;entryDy=0;" parent="1" source="qBQlF7NBc0J-nLH2HXVz-72" target="qBQlF7NBc0J-nLH2HXVz-73" edge="1">
                    <mxGeometry width="50" height="50" relative="1" as="geometry">
                        <mxPoint x="950" y="75" as="sourcePoint"/>
                        <mxPoint x="1150" y="75" as="targetPoint"/>
                    </mxGeometry>
                </mxCell>
                <mxCell id="fAShZ8duKGNs7Qphul_N-23" value="" style="endArrow=none;dashed=1;html=1;dashPattern=1 3;strokeWidth=2;exitX=1;exitY=0.75;exitDx=0;exitDy=0;entryX=0.5;entryY=0;entryDx=0;entryDy=0;" parent="1" source="qBQlF7NBc0J-nLH2HXVz-74" target="qBQlF7NBc0J-nLH2HXVz-73" edge="1">
                    <mxGeometry width="50" height="50" relative="1" as="geometry">
                        <mxPoint x="1065" y="-100" as="sourcePoint"/>
                        <mxPoint x="1165" y="55" as="targetPoint"/>
                    </mxGeometry>
                </mxCell>
                <mxCell id="fAShZ8duKGNs7Qphul_N-26" value="" style="curved=1;endArrow=classic;html=1;exitX=0.1;exitY=0.5;exitDx=0;exitDy=0;exitPerimeter=0;entryX=1;entryY=0;entryDx=0;entryDy=0;edgeStyle=orthogonalEdgeStyle;fillColor=#f8cecc;strokeWidth=2;strokeColor=#FF3399;" parent="1" source="2" target="fAShZ8duKGNs7Qphul_N-14" edge="1">
                    <mxGeometry width="50" height="50" relative="1" as="geometry">
                        <mxPoint x="1249.9999999999995" y="-130" as="sourcePoint"/>
                        <mxPoint x="1150" y="-40" as="targetPoint"/>
                    </mxGeometry>
                </mxCell>
                <mxCell id="fAShZ8duKGNs7Qphul_N-27" value="1. batch(transfer)" style="edgeLabel;html=1;align=center;verticalAlign=middle;resizable=0;points=[];fontStyle=1;fontColor=#FF3399;" parent="fAShZ8duKGNs7Qphul_N-26" vertex="1" connectable="0">
                    <mxGeometry x="-0.0495" y="3" relative="1" as="geometry">
                        <mxPoint x="38.82" y="6.999999999999999" as="offset"/>
                    </mxGeometry>
                </mxCell>
                <mxCell id="fAShZ8duKGNs7Qphul_N-30" value="" style="curved=1;endArrow=classic;html=1;exitX=0.1;exitY=0.5;exitDx=0;exitDy=0;exitPerimeter=0;entryX=1;entryY=0.5;entryDx=0;entryDy=0;edgeStyle=orthogonalEdgeStyle;strokeWidth=2;fillColor=#f8cecc;strokeColor=#FF3399;" parent="1" source="3" target="fAShZ8duKGNs7Qphul_N-14" edge="1">
                    <mxGeometry width="50" height="50" relative="1" as="geometry">
                        <mxPoint x="1249.9999999999995" y="-29.999999999999773" as="sourcePoint"/>
                        <mxPoint x="1090" y="15" as="targetPoint"/>
                        <Array as="points">
                            <mxPoint x="1254" y="-30"/>
                            <mxPoint x="1110" y="-30"/>
                        </Array>
                    </mxGeometry>
                </mxCell>
                <mxCell id="fAShZ8duKGNs7Qphul_N-31" value="1. System.Batch" style="edgeLabel;html=1;align=center;verticalAlign=middle;resizable=0;points=[];fontStyle=1;fontColor=#FF3399;" parent="fAShZ8duKGNs7Qphul_N-30" vertex="1" connectable="0">
                    <mxGeometry x="-0.0495" y="3" relative="1" as="geometry">
                        <mxPoint x="38.82" y="-3.000000000000001" as="offset"/>
                    </mxGeometry>
                </mxCell>
                <mxCell id="qBQlF7NBc0J-nLH2HXVz-29" value="" style="rhombus;whiteSpace=wrap;html=1;strokeWidth=2;fillWeight=-1;hachureGap=8;fillStyle=cross-hatch;fillColor=#e1d5e7;sketch=1;strokeColor=#9673a6;" parent="1" vertex="1">
                    <mxGeometry x="-430" y="10" width="120" height="60" as="geometry"/>
                </mxCell>
                <mxCell id="qBQlF7NBc0J-nLH2HXVz-34" style="edgeStyle=orthogonalEdgeStyle;curved=1;rounded=0;orthogonalLoop=1;jettySize=auto;html=1;entryX=0.13;entryY=0.77;entryDx=0;entryDy=0;fillColor=#fa6800;strokeColor=#C73500;strokeWidth=2;entryPerimeter=0;exitX=0.993;exitY=0.576;exitDx=0;exitDy=0;exitPerimeter=0;" parent="1" source="qBQlF7NBc0J-nLH2HXVz-29" target="qBQlF7NBc0J-nLH2HXVz-45" edge="1">
                    <mxGeometry relative="1" as="geometry">
                        <Array as="points">
                            <mxPoint x="-311" y="75"/>
                        </Array>
                        <mxPoint x="-272.5" y="61" as="sourcePoint"/>
                    </mxGeometry>
                </mxCell>
                <mxCell id="22" value="&lt;font color=&quot;#ff8000&quot;&gt;2. burn PDOT&lt;/font&gt;" style="edgeLabel;html=1;align=center;verticalAlign=middle;resizable=0;points=[];fontColor=#FF3399;fontStyle=1" parent="qBQlF7NBc0J-nLH2HXVz-34" vertex="1" connectable="0">
                    <mxGeometry x="0.0446" y="2" relative="1" as="geometry">
                        <mxPoint x="6.16" y="-3.11" as="offset"/>
                    </mxGeometry>
                </mxCell>
                <mxCell id="qBQlF7NBc0J-nLH2HXVz-41" value="" style="curved=1;endArrow=classic;html=1;entryX=0;entryY=0;entryDx=0;entryDy=0;edgeStyle=orthogonalEdgeStyle;exitX=1;exitY=0.75;exitDx=0;exitDy=0;fillColor=#fa6800;strokeColor=#C73500;strokeWidth=2;" parent="1" source="5" target="qBQlF7NBc0J-nLH2HXVz-29" edge="1">
                    <mxGeometry width="50" height="50" relative="1" as="geometry">
                        <mxPoint x="-480" y="-165" as="sourcePoint"/>
                        <mxPoint x="-280" y="-40" as="targetPoint"/>
                        <Array as="points"/>
                    </mxGeometry>
                </mxCell>
                <mxCell id="qBQlF7NBc0J-nLH2HXVz-42" value="1. Deposit" style="edgeLabel;html=1;align=center;verticalAlign=middle;resizable=0;points=[];fontStyle=1;fontColor=#FF8000;" parent="qBQlF7NBc0J-nLH2HXVz-41" vertex="1" connectable="0">
                    <mxGeometry x="-0.0495" y="3" relative="1" as="geometry">
                        <mxPoint x="-42.99999999999999" y="25.83" as="offset"/>
                    </mxGeometry>
                </mxCell>
                <mxCell id="qBQlF7NBc0J-nLH2HXVz-43" value="" style="curved=1;endArrow=classic;html=1;exitX=0;exitY=0.75;exitDx=0;exitDy=0;entryX=1;entryY=0;entryDx=0;entryDy=0;edgeStyle=orthogonalEdgeStyle;strokeWidth=2;fillColor=#fa6800;strokeColor=#C73500;" parent="1" source="6" target="qBQlF7NBc0J-nLH2HXVz-29" edge="1">
                    <mxGeometry width="50" height="50" relative="1" as="geometry">
                        <mxPoint x="-280" y="-165" as="sourcePoint"/>
                        <mxPoint x="-340" y="15" as="targetPoint"/>
                    </mxGeometry>
                </mxCell>
                <mxCell id="qBQlF7NBc0J-nLH2HXVz-44" value="1. Deposit" style="edgeLabel;html=1;align=center;verticalAlign=middle;resizable=0;points=[];fontStyle=1;fontColor=#FF8000;" parent="qBQlF7NBc0J-nLH2HXVz-43" vertex="1" connectable="0">
                    <mxGeometry x="-0.0495" y="3" relative="1" as="geometry">
                        <mxPoint x="37" y="14.999999999999998" as="offset"/>
                    </mxGeometry>
                </mxCell>
                <mxCell id="qBQlF7NBc0J-nLH2HXVz-46" style="edgeStyle=orthogonalEdgeStyle;rounded=0;orthogonalLoop=1;jettySize=auto;html=1;exitX=1;exitY=1;exitDx=0;exitDy=0;entryX=0.875;entryY=0.5;entryDx=0;entryDy=0;entryPerimeter=0;fillColor=#f8cecc;strokeWidth=2;strokeColor=#FF3399;" parent="1" source="fAShZ8duKGNs7Qphul_N-2" target="qBQlF7NBc0J-nLH2HXVz-45" edge="1">
                    <mxGeometry relative="1" as="geometry">
                        <Array as="points">
                            <mxPoint x="-60" y="180"/>
                            <mxPoint x="-60" y="40"/>
                        </Array>
                    </mxGeometry>
                </mxCell>
                <mxCell id="qBQlF7NBc0J-nLH2HXVz-63" value="4. create Proposal" style="edgeLabel;html=1;align=center;verticalAlign=middle;resizable=0;points=[];fontStyle=1;fontColor=#FF3399;" parent="qBQlF7NBc0J-nLH2HXVz-46" vertex="1" connectable="0">
                    <mxGeometry x="0.2979" y="15" relative="1" as="geometry">
                        <mxPoint x="95" y="27" as="offset"/>
                    </mxGeometry>
                </mxCell>
                <mxCell id="qBQlF7NBc0J-nLH2HXVz-47" style="edgeStyle=elbowEdgeStyle;rounded=0;orthogonalLoop=1;jettySize=auto;html=1;exitX=0;exitY=0.75;exitDx=0;exitDy=0;fillColor=#f8cecc;strokeWidth=2;entryX=0;entryY=0;entryDx=0;entryDy=0;strokeColor=#FF3399;elbow=vertical;" parent="1" source="qBQlF7NBc0J-nLH2HXVz-72" target="fAShZ8duKGNs7Qphul_N-1" edge="1">
                    <mxGeometry relative="1" as="geometry">
                        <mxPoint x="920" y="75" as="sourcePoint"/>
                        <mxPoint x="710" y="-140" as="targetPoint"/>
                        <Array as="points">
                            <mxPoint x="680" y="-110"/>
                            <mxPoint x="710" y="-10"/>
                            <mxPoint x="890" y="80"/>
                            <mxPoint x="890" y="-40"/>
                            <mxPoint x="800" y="-40"/>
                            <mxPoint x="860" y="-50"/>
                            <mxPoint x="740" y="-110"/>
                        </Array>
                    </mxGeometry>
                </mxCell>
                <mxCell id="qBQlF7NBc0J-nLH2HXVz-61" value="&lt;font color=&quot;#ff3399&quot;&gt;2. listen requestion&lt;/font&gt;" style="edgeLabel;html=1;align=center;verticalAlign=middle;resizable=0;points=[];fontStyle=1" parent="qBQlF7NBc0J-nLH2HXVz-47" vertex="1" connectable="0">
                    <mxGeometry x="-0.225" y="-26" relative="1" as="geometry">
                        <mxPoint x="-166" y="-15.86" as="offset"/>
                    </mxGeometry>
                </mxCell>
                <mxCell id="qBQlF7NBc0J-nLH2HXVz-56" style="edgeStyle=orthogonalEdgeStyle;rounded=0;orthogonalLoop=1;jettySize=auto;html=1;exitX=1;exitY=0;exitDx=0;exitDy=0;entryX=0;entryY=0.75;entryDx=0;entryDy=0;fillColor=#fa6800;strokeColor=#C73500;strokeWidth=2;elbow=vertical;" parent="1" source="fAShZ8duKGNs7Qphul_N-1" target="qBQlF7NBc0J-nLH2HXVz-72" edge="1">
                    <mxGeometry relative="1" as="geometry">
                        <mxPoint x="920" y="75" as="targetPoint"/>
                        <Array as="points">
                            <mxPoint x="910" y="180"/>
                        </Array>
                    </mxGeometry>
                </mxCell>
                <mxCell id="25" value="5. MultiSign Transfer" style="edgeLabel;html=1;align=center;verticalAlign=middle;resizable=0;points=[];fontColor=#FF8000;fontStyle=1" parent="qBQlF7NBc0J-nLH2HXVz-56" vertex="1" connectable="0">
                    <mxGeometry x="-0.1771" y="1" relative="1" as="geometry">
                        <mxPoint as="offset"/>
                    </mxGeometry>
                </mxCell>
                <mxCell id="qBQlF7NBc0J-nLH2HXVz-68" style="edgeStyle=orthogonalEdgeStyle;rounded=0;sketch=0;orthogonalLoop=1;jettySize=auto;html=1;exitX=0;exitY=0.5;exitDx=0;exitDy=0;shadow=0;strokeColor=#FF3399;strokeWidth=2;fontColor=#FF3399;" parent="1" source="qBQlF7NBc0J-nLH2HXVz-65" edge="1">
                    <mxGeometry relative="1" as="geometry">
                        <mxPoint x="20" y="180" as="targetPoint"/>
                    </mxGeometry>
                </mxCell>
                <mxCell id="qBQlF7NBc0J-nLH2HXVz-69" value="5. vote" style="edgeLabel;html=1;align=center;verticalAlign=middle;resizable=0;points=[];fontColor=#FF3399;fontStyle=1" parent="qBQlF7NBc0J-nLH2HXVz-68" vertex="1" connectable="0">
                    <mxGeometry x="0.0053" y="-5" relative="1" as="geometry">
                        <mxPoint x="-5" y="-6.359999999999999" as="offset"/>
                    </mxGeometry>
                </mxCell>
                <mxCell id="26" style="edgeStyle=orthogonalEdgeStyle;curved=1;rounded=0;orthogonalLoop=1;jettySize=auto;html=1;exitX=1;exitY=0.5;exitDx=0;exitDy=0;strokeColor=#FF3399;strokeWidth=2;fontColor=#FF8000;fontStyle=1" parent="1" source="qBQlF7NBc0J-nLH2HXVz-65" edge="1">
                    <mxGeometry relative="1" as="geometry">
                        <mxPoint x="720" y="180" as="targetPoint"/>
                    </mxGeometry>
                </mxCell>
                <mxCell id="27" value="7. MultiSign Approve and Execute" style="edgeLabel;html=1;align=center;verticalAlign=middle;resizable=0;points=[];fontColor=#FF8000;fontStyle=1" parent="26" vertex="1" connectable="0">
                    <mxGeometry x="0.0057" y="8" relative="1" as="geometry">
                        <mxPoint x="18" y="-32.21" as="offset"/>
                    </mxGeometry>
                </mxCell>
                <mxCell id="qBQlF7NBc0J-nLH2HXVz-65" value="&lt;font color=&quot;#ff9933&quot;&gt;&lt;b&gt;Other Relayer&lt;/b&gt;&lt;/font&gt;" style="rounded=1;whiteSpace=wrap;html=1;strokeColor=#00CC00;strokeWidth=3;fillColor=none;" parent="1" vertex="1">
                    <mxGeometry x="88.5" y="250" width="590" height="110" as="geometry"/>
                </mxCell>
                <mxCell id="qBQlF7NBc0J-nLH2HXVz-67" value="Deposit" style="html=1;shadow=0;dashed=0;align=center;verticalAlign=middle;shape=mxgraph.arrows2.arrow;dy=0;dx=10;notch=0;rounded=1;labelBackgroundColor=none;strokeWidth=2;fontColor=#ffffff;fillColor=#d80073;strokeColor=#A50040;" parent="1" vertex="1">
                    <mxGeometry x="830" y="-380" width="100" height="30" as="geometry"/>
                </mxCell>
                <mxCell id="qBQlF7NBc0J-nLH2HXVz-70" value="" style="verticalLabelPosition=bottom;verticalAlign=top;html=1;shape=mxgraph.flowchart.parallel_mode;pointerEvents=1;rounded=1;labelBackgroundColor=none;strokeWidth=4;fillColor=#FF3399;fontColor=#FF3399;strokeColor=#FF3399;" parent="1" vertex="1">
                    <mxGeometry x="1103" y="-385" width="141" height="40" as="geometry"/>
                </mxCell>
                <mxCell id="qBQlF7NBc0J-nLH2HXVz-73" value="" style="shape=actor;whiteSpace=wrap;html=1;rounded=1;labelBackgroundColor=none;strokeColor=#FF3399;strokeWidth=3;fontColor=#FF3399;fillColor=#FFFFFF;" parent="1" vertex="1">
                    <mxGeometry x="1150" y="35" width="40" height="60" as="geometry"/>
                </mxCell>
                <mxCell id="qBQlF7NBc0J-nLH2HXVz-74" value="" style="shape=actor;whiteSpace=wrap;html=1;rounded=1;labelBackgroundColor=none;strokeColor=#FF3399;strokeWidth=3;fontColor=#FF3399;fillColor=#FFFFFF;" parent="1" vertex="1">
                    <mxGeometry x="1030" y="-140" width="40" height="60" as="geometry"/>
                </mxCell>
                <mxCell id="2" value="" style="shape=actor;whiteSpace=wrap;html=1;strokeColor=#00FFFF;strokeWidth=3;" parent="1" vertex="1">
                    <mxGeometry x="1250" y="-160" width="40" height="60" as="geometry"/>
                </mxCell>
                <mxCell id="3" value="" style="shape=actor;whiteSpace=wrap;html=1;strokeColor=#00FFFF;strokeWidth=3;" parent="1" vertex="1">
                    <mxGeometry x="1250" y="-60" width="40" height="60" as="geometry"/>
                </mxCell>
                <mxCell id="5" value="" style="shape=actor;whiteSpace=wrap;html=1;strokeColor=#00FFFF;strokeWidth=3;" parent="1" vertex="1">
                    <mxGeometry x="-490" y="-200" width="40" height="60" as="geometry"/>
                </mxCell>
                <mxCell id="6" value="" style="shape=actor;whiteSpace=wrap;html=1;strokeColor=#00FFFF;strokeWidth=3;" parent="1" vertex="1">
                    <mxGeometry x="-310" y="-200" width="40" height="60" as="geometry"/>
                </mxCell>
                <mxCell id="qBQlF7NBc0J-nLH2HXVz-49" style="edgeStyle=orthogonalEdgeStyle;rounded=0;orthogonalLoop=1;jettySize=auto;html=1;exitX=0.875;exitY=0.5;exitDx=0;exitDy=0;exitPerimeter=0;entryX=0;entryY=1;entryDx=0;entryDy=0;fillColor=#fa6800;strokeColor=#C73500;strokeWidth=2;sketch=0;shadow=0;" parent="1" source="qBQlF7NBc0J-nLH2HXVz-45" target="fAShZ8duKGNs7Qphul_N-2" edge="1">
                    <mxGeometry relative="1" as="geometry">
                        <Array as="points">
                            <mxPoint x="-60" y="40"/>
                            <mxPoint x="-60" y="-110"/>
                        </Array>
                    </mxGeometry>
                </mxCell>
                <mxCell id="23" value="3. listen deposit" style="edgeLabel;html=1;align=center;verticalAlign=middle;resizable=0;points=[];fontColor=#FF8000;fontStyle=1" parent="qBQlF7NBc0J-nLH2HXVz-49" vertex="1" connectable="0">
                    <mxGeometry x="0.3861" y="1" relative="1" as="geometry">
                        <mxPoint as="offset"/>
                    </mxGeometry>
                </mxCell>
                <mxCell id="10" value="&lt;font style=&quot;font-size: 22px&quot;&gt;DOT&lt;/font&gt;" style="rounded=1;whiteSpace=wrap;html=1;strokeColor=#A50040;strokeWidth=2;fillColor=#d80073;fontColor=#ffffff;" parent="1" vertex="1">
                    <mxGeometry x="950" y="-395" width="120" height="60" as="geometry"/>
                </mxCell>
                <mxCell id="11" value="&lt;font style=&quot;font-size: 22px&quot;&gt;PDOT&lt;/font&gt;" style="rounded=1;whiteSpace=wrap;html=1;strokeColor=#A50040;strokeWidth=2;fillColor=#d80073;fontColor=#ffffff;" parent="1" vertex="1">
                    <mxGeometry x="1270" y="-395" width="120" height="60" as="geometry"/>
                </mxCell>
                <mxCell id="14" value="" style="verticalLabelPosition=bottom;verticalAlign=top;html=1;shape=mxgraph.flowchart.parallel_mode;pointerEvents=1;rounded=1;labelBackgroundColor=none;strokeWidth=4;fillColor=#fa6800;fontColor=#ffffff;strokeColor=#C73500;" parent="1" vertex="1">
                    <mxGeometry x="-297" y="-385" width="141" height="40" as="geometry"/>
                </mxCell>
                <mxCell id="15" value="&lt;font style=&quot;font-size: 22px&quot;&gt;PDOT&lt;/font&gt;" style="rounded=1;whiteSpace=wrap;html=1;strokeColor=#C73500;strokeWidth=2;fillColor=#fa6800;fontColor=#ffffff;" parent="1" vertex="1">
                    <mxGeometry x="-450" y="-395" width="120" height="60" as="geometry"/>
                </mxCell>
                <mxCell id="16" value="&lt;font style=&quot;font-size: 22px&quot;&gt;DOT&lt;/font&gt;" style="rounded=1;whiteSpace=wrap;html=1;strokeColor=#C73500;strokeWidth=2;fillColor=#fa6800;fontColor=#ffffff;" parent="1" vertex="1">
                    <mxGeometry x="-130" y="-395" width="120" height="60" as="geometry"/>
                </mxCell>
                <mxCell id="17" value="Redeem" style="html=1;shadow=0;dashed=0;align=center;verticalAlign=middle;shape=mxgraph.arrows2.arrow;dy=0;dx=10;notch=0;rounded=1;labelBackgroundColor=none;strokeWidth=2;fontColor=#ffffff;fillColor=#fa6800;strokeColor=#C73500;" parent="1" vertex="1">
                    <mxGeometry x="-570" y="-380" width="100" height="30" as="geometry"/>
                </mxCell>
                <mxCell id="18" value="Deposit" style="html=1;shadow=0;dashed=0;align=center;verticalAlign=middle;shape=mxgraph.arrows2.arrow;dy=0;dx=10;notch=0;rounded=1;labelBackgroundColor=none;strokeWidth=2;fontColor=#ffffff;fillColor=#d80073;strokeColor=#A50040;" parent="1" vertex="1">
                    <mxGeometry x="880" y="-230" width="100" height="30" as="geometry"/>
                </mxCell>
                <mxCell id="19" value="Redeem" style="html=1;shadow=0;dashed=0;align=center;verticalAlign=middle;shape=mxgraph.arrows2.arrow;dy=0;dx=10;notch=0;rounded=1;labelBackgroundColor=none;strokeWidth=2;fontColor=#ffffff;fillColor=#fa6800;strokeColor=#C73500;" parent="1" vertex="1">
                    <mxGeometry x="-200" y="-230" width="100" height="30" as="geometry"/>
                </mxCell>
                <mxCell id="28" value="&lt;font color=&quot;#ffffff&quot;&gt;MultiAddress&lt;/font&gt;" style="text;html=1;align=center;verticalAlign=middle;whiteSpace=wrap;rounded=0;labelBackgroundColor=#FF3399;fontSize=12;fontColor=#FF8000;fillColor=#FF3399;" parent="1" vertex="1">
                    <mxGeometry x="1010" y="50" width="80" height="25" as="geometry"/>
                </mxCell>
                <mxCell id="30" value="&lt;font color=&quot;#ffffff&quot;&gt;MultiAddress&lt;/font&gt;" style="text;html=1;align=center;verticalAlign=middle;whiteSpace=wrap;rounded=0;labelBackgroundColor=#FF3399;fontSize=12;fontColor=#FF8000;fillColor=#FF3399;" parent="1" vertex="1">
                    <mxGeometry x="-410" y="80" width="80" height="25" as="geometry"/>
                </mxCell>
            </root>
        </mxGraphModel>
    </diagram>
</mxfile>